<svg id="Layer_1" data-name="Layer 1" xmlns="http://www.w3.org/2000/svg" viewBox="0 0 889.34 369.16"><defs><style>.cls-1{fill:#f4eded;}.cls-2{fill:none;stroke:#f4eded;stroke-miterlimit:10;stroke-width:2px;}</style></defs><polygon class="cls-1" points="115.88 171.41 115.88 207.75 115.88 229.1 201.72 229.1 201.72 207.75 201.72 207.06 144.88 207.06 144.88 198.36 199.4 198.36 199.4 176.32 144.88 176.32 144.88 171.41 144.88 167.62 201.72 167.62 201.72 145.58 115.88 145.58 115.88 171.41"/><polygon class="cls-1" points="212.16 169.94 247.54 169.94 247.54 171.41 247.54 207.75 247.54 229.1 276.54 229.1 276.54 207.75 276.54 171.41 276.54 169.94 311.92 169.94 311.92 145.58 212.16 145.58 212.16 169.94"/><polygon class="cls-1" points="448.83 171.41 437.89 195.34 426.96 171.41 415.16 145.58 369.92 145.58 369.92 171.41 369.92 207.75 369.92 229.1 398.92 229.1 398.92 207.75 398.92 173.42 414.65 207.75 424.44 229.1 451.35 229.1 461.14 207.75 476.87 173.42 476.87 207.75 476.87 229.1 505.87 229.1 505.87 207.75 505.87 171.41 505.87 145.58 460.63 145.58 448.83 171.41"/><path class="cls-1" d="M647.2,545.33v15.82c0,9.74-4.29,19.83-22,19.83s-22-10-22-19.83V519.5h-29v42.81a52.78,52.78,0,0,0,3.23,19.36c6.17,15.62,21.41,23.67,47.81,23.67s41.57-8.1,47.77-23.67a52.18,52.18,0,0,0,3.27-19.36V519.5h-29Z" transform="translate(-55.49 -373.92)"/><polygon class="cls-1" points="745.29 171.41 745.29 207.75 745.29 229.1 774.29 229.1 774.29 207.75 774.29 171.41 774.29 145.58 745.29 145.58 745.29 171.41"/><path class="cls-1" d="M94.82,545.33c3.56-2.41,8.39-3.79,14.72-3.79,7.14,0,11.72,1.68,14.55,3.79a10,10,0,0,1,3.67,4.8h30.85a30.36,30.36,0,0,0-.72-4.8c-3.91-16.69-22.26-28.15-48.58-28.15-24.13,0-43.2,9.37-49.86,28.15a46.86,46.86,0,0,0-2.57,15.82,44.4,44.4,0,0,0,4.59,20.52c8.09,15.77,26.33,23.67,49.93,23.67,15.78,0,30.28-2.2,47.21-11.6V556.51H109.43v17.4h26v5a57,57,0,0,1-8.18,2.78,56.37,56.37,0,0,1-14.09,1.63,44.87,44.87,0,0,1-13-1.63C90.07,578.58,87,571.38,87,562.31,87,555,89.46,549,94.82,545.33Z" transform="translate(-55.49 -373.92)"/><path class="cls-1" d="M739.65,549.89c-15.34-1.34-20.6-2.47-22.21-4.56a3.35,3.35,0,0,1-.64-2.16c0-2.9,2.9-5.11,17.05-5.11,14.48,0,21.44,2,21.67,7.27a2.45,2.45,0,0,1,0,.27H785.7a2.45,2.45,0,0,0,0-.27c-1.32-18.27-19.16-28.15-51.83-28.15-28.53,0-47.21,8.82-47.21,25.87,0,.78,0,1.54.09,2.28,1.24,16.89,16.51,23.81,48.28,26.14,21.35,1.62,24,2.44,24,7a3.82,3.82,0,0,1-1.44,3.24c-2.17,1.74-7.35,2.79-19.09,2.79-9,0-14.85-1.05-18.37-2.79-3.19-1.58-4.48-3.72-4.48-6.14H685.48a32.63,32.63,0,0,0,.91,6.14c4.31,17.18,23.1,23.67,53.26,23.67,28.72,0,46.76-5.89,49.23-23.67a32.59,32.59,0,0,0,.3-4.4C789.18,554.88,769.35,552.45,739.65,549.89Z" transform="translate(-55.49 -373.92)"/><path class="cls-1" d="M892.43,581c-15,0-20.88-8.81-20.88-19.83,0-6.54,2.1-12.26,7-15.82,3.29-2.37,7.82-3.79,13.87-3.79,6.42,0,11.11,1.56,14.33,3.79a12.9,12.9,0,0,1,5.5,7.7h30.86a44.69,44.69,0,0,0-1.49-7.7c-5.33-18.36-22.55-28.15-49.2-28.15-25.81,0-43,9.37-48.82,28.15a53,53,0,0,0-2.22,15.82,49.7,49.7,0,0,0,4,20.52c7.1,15.77,23.48,23.67,47.08,23.67,24.4,0,40.8-8.22,47.53-23.67a42,42,0,0,0,3.16-12.4H912.26C911.1,574.72,905.19,581,892.43,581Z" transform="translate(-55.49 -373.92)"/><path class="cls-2" d="M108.92,427.92c-24.13,0-43.2,9.37-49.86,28.15a46.84,46.84,0,0,0-2.57,15.81,44.34,44.34,0,0,0,4.59,20.52H99.76C89.68,489.32,86.65,482.12,86.65,473c0-7.32,2.42-13.33,7.78-17,3.55-2.41,8.39-3.79,14.72-3.79,7.13,0,11.72,1.68,14.55,3.79a10.06,10.06,0,0,1,3.67,4.79h30.85a30.23,30.23,0,0,0-.72-4.79C153.58,439.38,135.24,427.92,108.92,427.92Z" transform="translate(-55.49 -373.92)"/><polygon class="cls-2" points="115.49 82.15 115.49 118.48 201.33 118.48 201.33 117.8 144.49 117.8 144.49 109.1 199.01 109.1 199.01 87.06 144.49 87.06 144.49 82.15 144.49 78.36 201.33 78.36 201.33 56.32 115.49 56.32 115.49 82.15"/><polygon class="cls-2" points="211.77 80.68 247.15 80.68 247.15 82.15 247.15 118.48 276.15 118.48 276.15 82.15 276.15 80.68 311.53 80.68 311.53 56.32 211.77 56.32 211.77 80.68"/><polygon class="cls-2" points="448.44 82.15 437.5 106.08 426.57 82.15 414.77 56.32 369.53 56.32 369.53 82.15 369.53 118.48 398.53 118.48 398.53 84.16 414.26 118.48 460.75 118.48 476.48 84.16 476.48 118.48 505.48 118.48 505.48 82.15 505.48 56.32 460.24 56.32 448.44 82.15"/><path class="cls-2" d="M646.81,456.07v15.81c0,9.75-4.29,19.84-22,19.84s-22-10-22-19.84V430.24h-29V473A52.71,52.71,0,0,0,577,492.4h95.58A52.14,52.14,0,0,0,675.81,473v-42.8h-29Z" transform="translate(-55.49 -373.92)"/><polygon class="cls-2" points="744.9 82.15 744.9 118.48 773.9 118.48 773.9 82.15 773.9 56.32 744.9 56.32 744.9 82.15"/><path class="cls-2" d="M109,484.64h26v5a57,57,0,0,1-8.18,2.77h31.38V467.24H109Z" transform="translate(-55.49 -373.92)"/><path class="cls-2" d="M715.25,486.27H685.09a32.4,32.4,0,0,0,.91,6.13h33.73C716.54,490.83,715.25,488.69,715.25,486.27Z" transform="translate(-55.49 -373.92)"/><path class="cls-2" d="M739.26,460.63c-15.35-1.34-20.6-2.47-22.21-4.56a3.38,3.38,0,0,1-.64-2.17c0-2.9,2.9-5.1,17.05-5.1,14.48,0,21.44,2,21.67,7.27a2.45,2.45,0,0,1,0,.27h30.16c0-.09,0-.18,0-.27-1.32-18.27-19.16-28.15-51.83-28.15-28.53,0-47.21,8.82-47.21,25.87,0,.78,0,1.54.09,2.28,1.24,16.89,16.51,23.8,48.28,26.14,21.35,1.62,24,2.43,24,7a3.79,3.79,0,0,1-1.44,3.23h31.3a32.32,32.32,0,0,0,.3-4.39C788.79,465.62,769,463.18,739.26,460.63Z" transform="translate(-55.49 -373.92)"/><path class="cls-2" d="M892,491.72c-15,0-20.88-8.82-20.88-19.84,0-6.53,2.11-12.26,7-15.81,3.29-2.38,7.82-3.79,13.86-3.79,6.43,0,11.12,1.56,14.34,3.79a13,13,0,0,1,5.5,7.69h30.85a43.82,43.82,0,0,0-1.48-7.69c-5.33-18.36-22.56-28.15-49.21-28.15-25.8,0-43,9.37-48.82,28.15A53.35,53.35,0,0,0,841,471.88a49.64,49.64,0,0,0,4,20.52h94.61a41.58,41.58,0,0,0,3.15-12.4H911.87C910.71,485.46,904.79,491.72,892,491.72Z" transform="translate(-55.49 -373.92)"/><path class="cls-2" d="M108.92,374.92c-24.13,0-43.2,9.37-49.86,28.15H94.43c3.55-2.41,8.39-3.79,14.72-3.79,7.13,0,11.72,1.68,14.55,3.79h33.8C153.58,386.38,135.24,374.92,108.92,374.92Z" transform="translate(-55.49 -373.92)"/><polygon class="cls-2" points="115.49 29.15 144.49 29.15 144.49 25.36 201.33 25.36 201.33 3.32 115.49 3.32 115.49 29.15"/><polygon class="cls-2" points="211.77 27.68 247.15 27.68 247.15 29.15 276.15 29.15 276.15 27.68 311.53 27.68 311.53 3.32 211.77 3.32 211.77 27.68"/><polygon class="cls-2" points="448.44 29.15 505.48 29.15 505.48 3.32 460.24 3.32 448.44 29.15"/><polygon class="cls-2" points="369.53 3.32 369.53 29.15 426.57 29.15 414.77 3.32 369.53 3.32"/><rect class="cls-2" x="518.24" y="3.32" width="29" height="25.83"/><rect class="cls-2" x="591.32" y="3.32" width="29" height="25.83"/><path class="cls-2" d="M733.46,374.92c-28.53,0-47.21,8.82-47.21,25.87,0,.78,0,1.54.09,2.28h30.71a3.38,3.38,0,0,1-.64-2.17c0-2.9,2.9-5.1,17.05-5.1,14.48,0,21.44,2,21.67,7.27h30.16C784,384.8,766.13,374.92,733.46,374.92Z" transform="translate(-55.49 -373.92)"/><rect class="cls-2" x="744.9" y="3.32" width="29" height="25.83"/><path class="cls-2" d="M892,374.92c-25.8,0-43,9.37-48.82,28.15h35c3.29-2.38,7.82-3.79,13.86-3.79,6.43,0,11.12,1.56,14.34,3.79h34.87C935.91,384.71,918.68,374.92,892,374.92Z" transform="translate(-55.49 -373.92)"/><path class="cls-2" d="M110,660.64h26v5a57,57,0,0,1-8.18,2.77A55.88,55.88,0,0,1,113.75,670a44.49,44.49,0,0,1-13-1.64C90.68,665.32,87.65,658.12,87.65,649c0-7.32,2.42-13.33,7.78-17H60.06a46.84,46.84,0,0,0-2.57,15.81,44.34,44.34,0,0,0,4.59,20.52c8.09,15.78,26.33,23.68,49.93,23.68,15.78,0,30.27-2.2,47.21-11.6V643.24H110Z" transform="translate(-55.49 -373.92)"/><path class="cls-2" d="M124.7,632.07a10.06,10.06,0,0,1,3.67,4.79h30.85a30.23,30.23,0,0,0-.72-4.79Z" transform="translate(-55.49 -373.92)"/><polygon class="cls-2" points="145.49 285.1 200.01 285.1 200.01 263.06 145.49 263.06 145.49 258.15 116.49 258.15 116.49 294.48 116.49 315.84 202.33 315.84 202.33 294.48 202.33 293.8 145.49 293.8 145.49 285.1"/><polygon class="cls-2" points="248.15 294.48 248.15 315.84 277.15 315.84 277.15 294.48 277.15 258.15 248.15 258.15 248.15 294.48"/><polygon class="cls-2" points="438.5 282.08 427.57 258.15 370.53 258.15 370.53 294.48 370.53 315.84 399.53 315.84 399.53 294.48 399.53 260.16 415.26 294.48 425.05 315.84 451.96 315.84 461.75 294.48 477.48 260.16 477.48 294.48 477.48 315.84 506.48 315.84 506.48 294.48 506.48 258.15 449.44 258.15 438.5 282.08"/><path class="cls-2" d="M647.81,647.88c0,9.75-4.29,19.84-22,19.84s-22-10-22-19.84V632.07h-29v17A52.71,52.71,0,0,0,578,668.4c6.17,15.63,21.41,23.68,47.81,23.68s41.56-8.1,47.77-23.68A52.14,52.14,0,0,0,676.81,649v-17h-29Z" transform="translate(-55.49 -373.92)"/><path class="cls-2" d="M786.31,632.34c0-.09,0-.18,0-.27H756.13a2.45,2.45,0,0,1,0,.27Z" transform="translate(-55.49 -373.92)"/><path class="cls-2" d="M740.26,636.63c-15.35-1.34-20.6-2.47-22.21-4.56H687.34c1.24,16.89,16.51,23.8,48.28,26.14,21.35,1.62,24,2.43,24,7a3.79,3.79,0,0,1-1.44,3.23c-2.17,1.75-7.35,2.8-19.09,2.8-9,0-14.85-1.06-18.37-2.8-3.19-1.57-4.48-3.71-4.48-6.13H686.09a32.4,32.4,0,0,0,.91,6.13c4.3,17.19,23.1,23.68,53.26,23.68,28.72,0,46.76-5.89,49.23-23.68a32.32,32.32,0,0,0,.3-4.39C789.79,641.62,770,639.18,740.26,636.63Z" transform="translate(-55.49 -373.92)"/><polygon class="cls-2" points="745.9 294.48 745.9 315.84 774.9 315.84 774.9 294.48 774.9 258.15 745.9 258.15 745.9 294.48"/><path class="cls-2" d="M912.87,639.76h30.85a43.82,43.82,0,0,0-1.48-7.69H907.37A13,13,0,0,1,912.87,639.76Z" transform="translate(-55.49 -373.92)"/><path class="cls-2" d="M893,667.72c-15,0-20.88-8.82-20.88-19.84,0-6.53,2.11-12.26,7-15.81h-35A53.35,53.35,0,0,0,842,647.88a49.64,49.64,0,0,0,4,20.52c7.1,15.78,23.48,23.68,47.07,23.68,24.41,0,40.81-8.22,47.54-23.68a41.58,41.58,0,0,0,3.15-12.4H912.87C911.71,661.46,905.79,667.72,893,667.72Z" transform="translate(-55.49 -373.92)"/><path class="cls-2" d="M111.75,720a44.49,44.49,0,0,1-13-1.64H60.08c8.09,15.78,26.33,23.68,49.93,23.68,15.78,0,30.27-2.2,47.21-11.6V718.4H125.84A55.88,55.88,0,0,1,111.75,720Z" transform="translate(-55.49 -373.92)"/><rect class="cls-2" x="114.49" y="344.48" width="85.84" height="21.35"/><rect class="cls-2" x="246.15" y="344.48" width="29" height="21.35"/><polygon class="cls-2" points="423.05 365.84 449.96 365.84 459.75 344.48 413.26 344.48 423.05 365.84"/><rect class="cls-2" x="475.48" y="344.48" width="29" height="21.35"/><rect class="cls-2" x="368.53" y="344.48" width="29" height="21.35"/><path class="cls-2" d="M623.77,742.08c26.29,0,41.56-8.1,47.77-23.68H576C582.13,734,597.37,742.08,623.77,742.08Z" transform="translate(-55.49 -373.92)"/><path class="cls-2" d="M737.1,721.2c-9,0-14.85-1.06-18.37-2.8H685c4.3,17.19,23.1,23.68,53.26,23.68,28.72,0,46.76-5.89,49.23-23.68h-31.3C754,720.15,748.84,721.2,737.1,721.2Z" transform="translate(-55.49 -373.92)"/><rect class="cls-2" x="743.9" y="344.48" width="29" height="21.35"/><path class="cls-2" d="M844,718.4c7.1,15.78,23.48,23.68,47.07,23.68,24.41,0,40.81-8.22,47.54-23.68Z" transform="translate(-55.49 -373.92)"/></svg>